<?xml version="1.0" encoding="utf-8" standalone="no"?>
<!DOCTYPE svg PUBLIC "-//W3C//DTD SVG 1.1//EN"
  "http://www.w3.org/Graphics/SVG/1.1/DTD/svg11.dtd">
<svg xmlns:xlink="http://www.w3.org/1999/xlink" width="252pt" height="198pt" viewBox="0 0 252 198" xmlns="http://www.w3.org/2000/svg" version="1.1">
 <metadata>
  <rdf:RDF xmlns:dc="http://purl.org/dc/elements/1.1/" xmlns:cc="http://creativecommons.org/ns#" xmlns:rdf="http://www.w3.org/1999/02/22-rdf-syntax-ns#">
   <cc:Work>
    <dc:type rdf:resource="http://purl.org/dc/dcmitype/StillImage"/>
    <dc:date>2026-10-09T16:59:59.982931</dc:date>
    <dc:format>image/svg+xml</dc:format>
    <dc:creator>
     <cc:Agent>
      <dc:title>Matplotlib v3.10.9, https://matplotlib.org/</dc:title>
     </cc:Agent>
    </dc:creator>
   </cc:Work>
  </rdf:RDF>
 </metadata>
 <defs>
  <style type="text/css">*{stroke-linejoin: round; stroke-linecap: butt}</style>
 </defs>
 <g id="figure_1">
  <g id="patch_1">
   <path d="M 0 198 
L 252 198 
L 252 0 
L 0 0 
z
" style="fill: #ffffff"/>
  </g>
  <g id="axes_1">
   <g id="patch_2">
    <path d="M 50.4 162.36 
L 244.44 162.36 
L 244.44 57.42 
L 50.4 57.42 
z
" style="fill: #ffffff"/>
   </g>
   <g id="matplotlib.axis_1">
    <g id="xtick_1">
     <g id="line2d_1">
      <path d="M 58.32 162.36 
L 58.32 57.42 
" clip-path="url(#pb63bdc5ce6)" style="fill: none; stroke: #e3e3e3; stroke-width: 0.5; stroke-linecap: square"/>
     </g>
     <g id="line2d_2">
      <defs>
       <path id="m2fdd8b3d7f" d="M 0 0 
L 0 3.5 
" style="stroke: #000000; stroke-width: 0.8"/>
      </defs>
      <g>
       <use xlink:href="#m2fdd8b3d7f" x="58.32" y="162.36" style="stroke: #000000; stroke-width: 0.8"/>
      </g>
     </g>
     <g id="text_1">
      <text style="font-size: 8px; font-family: 'DejaVu Sans'; text-anchor: middle" x="58.32" y="175.43875" transform="rotate(-0 58.32 175.43875)">1</text>
     </g>
    </g>
    <g id="xtick_2">
     <g id="line2d_3">
      <path d="M 88.02 162.36 
L 88.02 57.42 
" clip-path="url(#pb63bdc5ce6)" style="fill: none; stroke: #e3e3e3; stroke-width: 0.5; stroke-linecap: square"/>
     </g>
     <g id="line2d_4">
      <g>
       <use xlink:href="#m2fdd8b3d7f" x="88.02" y="162.36" style="stroke: #000000; stroke-width: 0.8"/>
      </g>
     </g>
     <g id="text_2">
      <text style="font-size: 8px; font-family: 'DejaVu Sans'; text-anchor: middle" x="88.02" y="175.43875" transform="rotate(-0 88.02 175.43875)">4</text>
     </g>
    </g>
    <g id="xtick_3">
     <g id="line2d_5">
      <path d="M 117.72 162.36 
L 117.72 57.42 
" clip-path="url(#pb63bdc5ce6)" style="fill: none; stroke: #e3e3e3; stroke-width: 0.5; stroke-linecap: square"/>
     </g>
     <g id="line2d_6">
      <g>
       <use xlink:href="#m2fdd8b3d7f" x="117.72" y="162.36" style="stroke: #000000; stroke-width: 0.8"/>
      </g>
     </g>
     <g id="text_3">
      <text style="font-size: 8px; font-family: 'DejaVu Sans'; text-anchor: middle" x="117.72" y="175.43875" transform="rotate(-0 117.72 175.43875)">7</text>
     </g>
    </g>
    <g id="xtick_4">
     <g id="line2d_7">
      <path d="M 147.42 162.36 
L 147.42 57.42 
" clip-path="url(#pb63bdc5ce6)" style="fill: none; stroke: #e3e3e3; stroke-width: 0.5; stroke-linecap: square"/>
     </g>
     <g id="line2d_8">
      <g>
       <use xlink:href="#m2fdd8b3d7f" x="147.42" y="162.36" style="stroke: #000000; stroke-width: 0.8"/>
      </g>
     </g>
     <g id="text_4">
      <text style="font-size: 8px; font-family: 'DejaVu Sans'; text-anchor: middle" x="147.42" y="175.43875" transform="rotate(-0 147.42 175.43875)">10</text>
     </g>
    </g>
    <g id="xtick_5">
     <g id="line2d_9">
      <path d="M 177.12 162.36 
L 177.12 57.42 
" clip-path="url(#pb63bdc5ce6)" style="fill: none; stroke: #e3e3e3; stroke-width: 0.5; stroke-linecap: square"/>
     </g>
     <g id="line2d_10">
      <g>
       <use xlink:href="#m2fdd8b3d7f" x="177.12" y="162.36" style="stroke: #000000; stroke-width: 0.8"/>
      </g>
     </g>
     <g id="text_5">
      <text style="font-size: 8px; font-family: 'DejaVu Sans'; text-anchor: middle" x="177.12" y="175.43875" transform="rotate(-0 177.12 175.43875)">13</text>
     </g>
    </g>
    <g id="xtick_6">
     <g id="line2d_11">
      <path d="M 236.52 162.36 
L 236.52 57.42 
" clip-path="url(#pb63bdc5ce6)" style="fill: none; stroke: #e3e3e3; stroke-width: 0.5; stroke-linecap: square"/>
     </g>
     <g id="line2d_12">
      <g>
       <use xlink:href="#m2fdd8b3d7f" x="236.52" y="162.36" style="stroke: #000000; stroke-width: 0.8"/>
      </g>
     </g>
     <g id="text_6">
      <text style="font-size: 8px; font-family: 'DejaVu Sans'; text-anchor: middle" x="236.52" y="175.43875" transform="rotate(-0 236.52 175.43875)">19</text>
     </g>
    </g>
    <g id="text_7">
     <text style="font-size: 8.5px; font-family: 'DejaVu Sans'; text-anchor: middle" x="147.42" y="187.561172" transform="rotate(-0 147.42 187.561172)">SNR (dB)</text>
    </g>
   </g>
   <g id="matplotlib.axis_2">
    <g id="ytick_1">
     <g id="line2d_13">
      <path d="M 50.4 150.527207 
L 244.44 150.527207 
" clip-path="url(#pb63bdc5ce6)" style="fill: none; stroke: #e3e3e3; stroke-width: 0.5; stroke-linecap: square"/>
     </g>
     <g id="line2d_14">
      <defs>
       <path id="m0b8c0d3b6b" d="M 0 0 
L -3.5 0 
" style="stroke: #000000; stroke-width: 0.8"/>
      </defs>
      <g>
       <use xlink:href="#m0b8c0d3b6b" x="50.4" y="150.527207" style="stroke: #000000; stroke-width: 0.8"/>
      </g>
     </g>
     <g id="text_8">
      <text style="font-size: 8px; font-family: 'DejaVu Sans'; text-anchor: end" x="43.4" y="153.566582" transform="rotate(-0 43.4 153.566582)">0.4</text>
     </g>
    </g>
    <g id="ytick_2">
     <g id="line2d_15">
      <path d="M 50.4 130.758263 
L 244.44 130.758263 
" clip-path="url(#pb63bdc5ce6)" style="fill: none; stroke: #e3e3e3; stroke-width: 0.5; stroke-linecap: square"/>
     </g>
     <g id="line2d_16">
      <g>
       <use xlink:href="#m0b8c0d3b6b" x="50.4" y="130.758263" style="stroke: #000000; stroke-width: 0.8"/>
      </g>
     </g>
     <g id="text_9">
      <text style="font-size: 8px; font-family: 'DejaVu Sans'; text-anchor: end" x="43.4" y="133.797638" transform="rotate(-0 43.4 133.797638)">0.5</text>
     </g>
    </g>
    <g id="ytick_3">
     <g id="line2d_17">
      <path d="M 50.4 110.989319 
L 244.44 110.989319 
" clip-path="url(#pb63bdc5ce6)" style="fill: none; stroke: #e3e3e3; stroke-width: 0.5; stroke-linecap: square"/>
     </g>
     <g id="line2d_18">
      <g>
       <use xlink:href="#m0b8c0d3b6b" x="50.4" y="110.989319" style="stroke: #000000; stroke-width: 0.8"/>
      </g>
     </g>
     <g id="text_10">
      <text style="font-size: 8px; font-family: 'DejaVu Sans'; text-anchor: end" x="43.4" y="114.028694" transform="rotate(-0 43.4 114.028694)">0.6</text>
     </g>
    </g>
    <g id="ytick_4">
     <g id="line2d_19">
      <path d="M 50.4 91.220375 
L 244.44 91.220375 
" clip-path="url(#pb63bdc5ce6)" style="fill: none; stroke: #e3e3e3; stroke-width: 0.5; stroke-linecap: square"/>
     </g>
     <g id="line2d_20">
      <g>
       <use xlink:href="#m0b8c0d3b6b" x="50.4" y="91.220375" style="stroke: #000000; stroke-width: 0.8"/>
      </g>
     </g>
     <g id="text_11">
      <text style="font-size: 8px; font-family: 'DejaVu Sans'; text-anchor: end" x="43.4" y="94.25975" transform="rotate(-0 43.4 94.25975)">0.7</text>
     </g>
    </g>
    <g id="ytick_5">
     <g id="line2d_21">
      <path d="M 50.4 71.451432 
L 244.44 71.451432 
" clip-path="url(#pb63bdc5ce6)" style="fill: none; stroke: #e3e3e3; stroke-width: 0.5; stroke-linecap: square"/>
     </g>
     <g id="line2d_22">
      <g>
       <use xlink:href="#m0b8c0d3b6b" x="50.4" y="71.451432" style="stroke: #000000; stroke-width: 0.8"/>
      </g>
     </g>
     <g id="text_12">
      <text style="font-size: 8px; font-family: 'DejaVu Sans'; text-anchor: end" x="43.4" y="74.490807" transform="rotate(-0 43.4 74.490807)">0.8</text>
     </g>
    </g>
    <g id="text_13">
     <text style="font-size: 8.5px; font-family: 'DejaVu Sans'; text-anchor: middle" x="24.909766" y="109.89" transform="rotate(-90 24.909766 109.89)">Cosine similarity ↑</text>
    </g>
   </g>
   <g id="FillBetweenPolyCollection_1">
    <defs>
     <path id="mf129ace160" d="M 58.32 -52.900548 
L 58.32 -45.795484 
L 88.02 -68.552057 
L 117.72 -94.898649 
L 147.42 -94.905545 
L 177.12 -115.179467 
L 236.52 -115.179467 
L 236.52 -120.497329 
L 236.52 -120.497329 
L 177.12 -120.497329 
L 147.42 -101.515229 
L 117.72 -101.50104 
L 88.02 -75.784143 
L 58.32 -52.900548 
z
"/>
    </defs>
    <g clip-path="url(#pb63bdc5ce6)">
     <use xlink:href="#mf129ace160" x="0" y="198" style="fill: #555555; fill-opacity: 0.13"/>
    </g>
   </g>
   <g id="FillBetweenPolyCollection_2">
    <defs>
     <path id="m984101e491" d="M 58.32 -61.96835 
L 58.32 -54.744188 
L 88.02 -73.857354 
L 117.72 -94.898649 
L 147.42 -110.445797 
L 177.12 -115.901836 
L 236.52 -125.788829 
L 236.52 -130.424516 
L 236.52 -130.424516 
L 177.12 -121.207247 
L 147.42 -115.987163 
L 117.72 -101.50104 
L 88.02 -80.926664 
L 58.32 -61.96835 
z
"/>
    </defs>
    <g clip-path="url(#pb63bdc5ce6)">
     <use xlink:href="#m984101e491" x="0" y="198" style="fill: #0072b2; fill-opacity: 0.13"/>
    </g>
   </g>
   <g id="patch_3">
    <path d="M 50.4 162.36 
L 50.4 57.42 
" style="fill: none; stroke: #000000; stroke-width: 0.6; stroke-linejoin: miter; stroke-linecap: square"/>
   </g>
   <g id="patch_4">
    <path d="M 50.4 162.36 
L 244.44 162.36 
" style="fill: none; stroke: #000000; stroke-width: 0.6; stroke-linejoin: miter; stroke-linecap: square"/>
   </g>
   <g id="line2d_23">
    <path d="M 58.32 148.638066 
L 88.02 125.862086 
L 117.72 99.782361 
L 147.42 99.775282 
L 177.12 80.137363 
L 236.52 80.137363 
" clip-path="url(#pb63bdc5ce6)" style="fill: none; stroke-dasharray: 4.995,2.16; stroke-dashoffset: 0; stroke: #555555; stroke-width: 1.35"/>
    <defs>
     <path id="m27aac5c70d" d="M -2.1 2.1 
L 2.1 2.1 
L 2.1 -2.1 
L -2.1 -2.1 
z
" style="stroke: #555555; stroke-linejoin: miter"/>
    </defs>
    <g clip-path="url(#pb63bdc5ce6)">
     <use xlink:href="#m27aac5c70d" x="58.32" y="148.638066" style="fill: #555555; stroke: #555555; stroke-linejoin: miter"/>
     <use xlink:href="#m27aac5c70d" x="88.02" y="125.862086" style="fill: #555555; stroke: #555555; stroke-linejoin: miter"/>
     <use xlink:href="#m27aac5c70d" x="117.72" y="99.782361" style="fill: #555555; stroke: #555555; stroke-linejoin: miter"/>
     <use xlink:href="#m27aac5c70d" x="147.42" y="99.775282" style="fill: #555555; stroke: #555555; stroke-linejoin: miter"/>
     <use xlink:href="#m27aac5c70d" x="177.12" y="80.137363" style="fill: #555555; stroke: #555555; stroke-linejoin: miter"/>
     <use xlink:href="#m27aac5c70d" x="236.52" y="80.137363" style="fill: #555555; stroke: #555555; stroke-linejoin: miter"/>
    </g>
   </g>
   <g id="line2d_24">
    <path d="M 58.32 139.62693 
L 88.02 120.574729 
L 117.72 99.782361 
L 147.42 84.778991 
L 177.12 79.41933 
L 236.52 69.846489 
" clip-path="url(#pb63bdc5ce6)" style="fill: none; stroke: #0072b2; stroke-width: 1.35; stroke-linecap: square"/>
    <defs>
     <path id="mc1be4cd307" d="M 0 2.1 
C 0.556927 2.1 1.091118 1.878731 1.484924 1.484924 
C 1.878731 1.091118 2.1 0.556927 2.1 0 
C 2.1 -0.556927 1.878731 -1.091118 1.484924 -1.484924 
C 1.091118 -1.878731 0.556927 -2.1 0 -2.1 
C -0.556927 -2.1 -1.091118 -1.878731 -1.484924 -1.484924 
C -1.878731 -1.091118 -2.1 -0.556927 -2.1 0 
C -2.1 0.556927 -1.878731 1.091118 -1.484924 1.484924 
C -1.091118 1.878731 -0.556927 2.1 0 2.1 
z
" style="stroke: #0072b2"/>
    </defs>
    <g clip-path="url(#pb63bdc5ce6)">
     <use xlink:href="#mc1be4cd307" x="58.32" y="139.62693" style="fill: #0072b2; stroke: #0072b2"/>
     <use xlink:href="#mc1be4cd307" x="88.02" y="120.574729" style="fill: #0072b2; stroke: #0072b2"/>
     <use xlink:href="#mc1be4cd307" x="117.72" y="99.782361" style="fill: #0072b2; stroke: #0072b2"/>
     <use xlink:href="#mc1be4cd307" x="147.42" y="84.778991" style="fill: #0072b2; stroke: #0072b2"/>
     <use xlink:href="#mc1be4cd307" x="177.12" y="79.41933" style="fill: #0072b2; stroke: #0072b2"/>
     <use xlink:href="#mc1be4cd307" x="236.52" y="69.846489" style="fill: #0072b2; stroke: #0072b2"/>
    </g>
   </g>
   <g id="text_14">
    <text style="font-size: 9px; font-family: 'DejaVu Sans'; text-anchor: middle" x="147.42" y="51.42" transform="rotate(-0 147.42 51.42)">DINOv2 ViT-L/14</text>
   </g>
   <g id="legend_1">
    <g id="line2d_25">
     <path d="M 69.773094 29.203459 
L 78.898094 29.203459 
L 88.023094 29.203459 
" style="fill: none; stroke-dasharray: 4.995,2.16; stroke-dashoffset: 0; stroke: #555555; stroke-width: 1.35"/>
     <g>
      <use xlink:href="#m27aac5c70d" x="78.898094" y="29.203459" style="fill: #555555; stroke: #555555; stroke-linejoin: miter"/>
     </g>
    </g>
    <g id="text_15">
     <text style="font-size: 7.3px; font-family: 'DejaVu Sans'; text-anchor: start" x="93.863094" y="31.758459" transform="rotate(-0 93.863094 31.758459)">Complete-scale raw + VAR</text>
    </g>
    <g id="line2d_26">
     <path d="M 69.773094 39.918491 
L 78.898094 39.918491 
L 88.023094 39.918491 
" style="fill: none; stroke: #0072b2; stroke-width: 1.35; stroke-linecap: square"/>
     <g>
      <use xlink:href="#mc1be4cd307" x="78.898094" y="39.918491" style="fill: #0072b2; stroke: #0072b2"/>
     </g>
    </g>
    <g id="text_16">
     <text style="font-size: 7.3px; font-family: 'DejaVu Sans'; text-anchor: start" x="93.863094" y="42.473491" transform="rotate(-0 93.863094 42.473491)">Partial-scale raw + VAR (NeST-Com)</text>
    </g>
   </g>
  </g>
 </g>
 <defs>
  <clipPath id="pb63bdc5ce6">
   <rect x="50.4" y="57.42" width="194.04" height="104.94"/>
  </clipPath>
 </defs>
</svg>
